<svg xmlns="http://www.w3.org/2000/svg" version="1.1" xmlns:xlink="http://www.w3.org/1999/xlink" xmlns:svgjs="http://svgjs.dev/svgjs" width="1440" height="560" preserveAspectRatio="none" viewBox="0 0 1440 560"><g mask="url(&quot;#SvgjsMask3295&quot;)" fill="none"><rect width="1440" height="560" x="0" y="0" fill="url(&quot;#SvgjsLinearGradient3296&quot;)"></rect><use xlink:href="#SvgjsSymbol3297" x="0" y="0"></use><use xlink:href="#SvgjsSymbol3297" x="720" y="0"></use></g><defs><mask id="SvgjsMask3295"><rect width="1440" height="560" fill="#ffffff"></rect></mask><linearGradient x1="15.28%" y1="-39.29%" x2="84.72%" y2="139.29%" gradientUnits="userSpaceOnUse" id="SvgjsLinearGradient3296"><stop stop-color="rgba(200, 159, 156, 1)" offset="0.21"></stop><stop stop-color="rgba(238, 215, 197, 1)" offset="0.57"></stop></linearGradient><path d="M-1 0 a1 1 0 1 0 2 0 a1 1 0 1 0 -2 0z"></path><path d="M-3 0 a3 3 0 1 0 6 0 a3 3 0 1 0 -6 0z"></path><path d="M-5 0 a5 5 0 1 0 10 0 a5 5 0 1 0 -10 0z"></path><path d="M2 -2 L-2 2z"></path><path d="M6 -6 L-6 6z"></path><path d="M30 -30 L-30 30z"></path></defs><symbol id="SvgjsSymbol3297"></symbol></svg>